<svg xmlns="http://www.w3.org/2000/svg" width="100" height="94" viewBox="0 0 100 94" version="1.1">
	<path d="M 71.023 12.683 C 71.035 13.132, 72.498 14.225, 74.273 15.110 C 77.400 16.670, 77.497 16.909, 77.405 22.823 C 77.353 26.180, 77.616 28.737, 77.989 28.507 C 78.362 28.277, 78.667 28.668, 78.667 29.377 C 78.667 30.086, 78.086 30.667, 77.377 30.667 C 76.668 30.667, 76.356 30.233, 76.683 29.704 C 77.011 29.174, 76.653 28.968, 75.889 29.245 C 75.125 29.523, 74.612 30.256, 74.750 30.875 C 74.888 31.494, 74.142 32, 73.094 32 C 71.680 32, 71.322 32.517, 71.710 34 C 72.014 35.162, 71.741 36, 71.058 36 C 70.411 36, 70.160 35.550, 70.500 35 C 71.206 33.858, 70.451 33.772, 67.250 34.630 C 66.013 34.962, 65 35.829, 65 36.558 C 65 37.286, 64.480 38.203, 63.845 38.595 C 63.136 39.034, 62.962 38.870, 63.395 38.170 C 64.160 36.932, 58.371 37.642, 56.500 39.015 C 55.950 39.419, 54.150 39.937, 52.500 40.166 C 49.593 40.571, 49.500 40.459, 49.500 36.542 C 49.500 34.319, 49.748 32.275, 50.052 32 C 50.356 31.725, 51.426 29.700, 52.430 27.500 C 53.434 25.300, 54.943 22.712, 55.783 21.750 C 57.548 19.728, 61.624 19.414, 62.280 21.250 C 62.525 21.938, 63.112 22.138, 63.584 21.696 C 64.057 21.253, 63.973 20.579, 63.398 20.196 C 62.824 19.813, 62.064 18.712, 61.708 17.750 C 61.353 16.788, 60.544 16, 59.909 16 C 59.078 16, 59.103 16.419, 60 17.500 C 61.028 18.738, 60.933 19, 59.456 19 C 58.472 19, 57.963 18.704, 58.325 18.342 C 58.687 17.980, 58.424 16.994, 57.741 16.150 C 56.751 14.926, 56.753 14.768, 57.750 15.367 C 58.438 15.780, 59 15.694, 59 15.176 C 59 14.121, 55.639 13.034, 52.312 13.014 C 49.375 12.995, 43.546 18.375, 44.319 20.390 C 44.646 21.240, 44.521 22.178, 44.042 22.474 C 43.563 22.770, 42.943 22.447, 42.664 21.756 C 42.315 20.889, 42.132 20.964, 42.073 22 C 42.026 22.825, 41.270 24.850, 40.394 26.500 C 39.517 28.150, 38.732 32.084, 38.650 35.242 C 38.508 40.661, 38.359 40.984, 36 40.981 C 31.462 40.976, 26.030 39.760, 26.579 38.872 C 26.875 38.393, 26.452 38, 25.638 38 C 23.849 38, 22.570 32.932, 23.566 29.793 C 24.294 27.498, 29.058 22.505, 31.276 21.712 C 31.988 21.457, 32.129 20.903, 31.613 20.387 C 31.097 19.871, 30.539 20.023, 30.280 20.750 C 30.034 21.438, 29.266 22, 28.572 22 C 27.878 22, 26.495 22.900, 25.500 24 C 24.505 25.100, 23.310 26, 22.845 26 C 21.693 26, 18 29.773, 18 30.950 C 18 31.473, 17.294 32.296, 16.430 32.779 C 15.393 33.360, 14.799 35.278, 14.680 38.438 C 14.517 42.775, 14.825 43.491, 18 46.153 C 19.979 47.812, 22.261 48.892, 23.251 48.637 C 24.215 48.389, 24.751 48.595, 24.442 49.093 C 24.134 49.592, 25.285 50, 27 50 C 28.824 50, 29.862 50.415, 29.500 51 C 29.132 51.595, 30.323 52, 32.441 52 C 35.158 52, 36.004 52.414, 36.015 53.750 C 36.028 55.235, 36.173 55.274, 36.974 54.008 C 37.528 53.132, 37.548 52.148, 37.023 51.623 C 36.497 51.097, 36.691 50.166, 37.493 49.364 C 39.382 47.475, 40.539 47.645, 38.937 49.576 C 37.856 50.879, 37.867 51.300, 39 52 C 40.143 52.706, 40.150 53.115, 39.043 54.448 C 37.582 56.208, 38.222 68.870, 39.825 69.928 C 40.302 70.243, 41.009 71.792, 41.395 73.371 C 42.075 76.145, 44.758 79.675, 45.929 79.333 C 46.243 79.242, 46.725 79.426, 47 79.744 C 47.275 80.061, 46.938 79.997, 46.250 79.601 C 44.342 78.503, 44.762 80.762, 46.855 82.855 C 50.142 86.142, 58.840 86.632, 57.624 83.463 C 57.355 82.761, 58.005 81.401, 59.067 80.439 C 60.130 79.477, 61 79.048, 61 79.485 C 61 79.922, 60.212 80.916, 59.250 81.695 C 57.656 82.984, 57.692 83.018, 59.653 82.072 C 62.063 80.909, 66 73.537, 66 70.184 C 66 68.983, 66.403 68, 66.895 68 C 67.387 68, 67.958 66.240, 68.163 64.089 C 68.495 60.607, 68.342 60.282, 66.768 61.124 C 65.796 61.645, 65 63.110, 65 64.382 C 65 66.870, 62.396 72.716, 60.381 74.750 C 58.655 76.492, 55.334 76.312, 54.614 74.437 C 54.284 73.577, 53.592 73.134, 53.076 73.453 C 52.560 73.772, 51.813 73.506, 51.415 72.862 C 50.963 72.131, 51.124 71.959, 51.845 72.405 C 53.394 73.361, 53.336 70.736, 51.774 69.174 C 50.998 68.398, 50.540 64.748, 50.524 59.224 L 50.500 50.500 54 50.136 C 56.969 49.828, 57.196 49.642, 55.500 48.910 C 54.147 48.326, 54.716 48.238, 57.261 48.637 C 59.329 48.961, 61.579 48.778, 62.261 48.229 C 62.942 47.680, 64.937 46.924, 66.693 46.549 C 68.778 46.103, 69.708 45.404, 69.375 44.534 C 69.094 43.802, 69.414 42.862, 70.086 42.447 C 70.868 41.963, 71.052 42.107, 70.595 42.845 C 69.795 44.140, 70.465 44.250, 73.766 43.366 C 75.127 43.001, 75.926 42.107, 75.766 41.129 C 75.575 39.958, 76.132 39.588, 77.750 39.813 C 79.287 40.027, 80 39.612, 80 38.504 C 80 37.612, 79.550 37.160, 79 37.500 C 78.450 37.840, 78 37.641, 78 37.059 C 78 35.694, 79.689 35.687, 80.530 37.049 C 81.216 38.158, 84.140 36.420, 83.718 35.154 C 83.598 34.794, 83.725 34.479, 84 34.454 C 84.275 34.429, 85.513 33.542, 86.750 32.482 C 89.047 30.515, 89.956 27.291, 87.845 28.595 C 87.124 29.041, 86.963 28.869, 87.415 28.138 C 87.813 27.494, 88.525 27.206, 88.997 27.498 C 89.469 27.790, 90.159 27.075, 90.529 25.909 C 91.540 22.722, 88.095 16.983, 84.766 16.310 C 83.263 16.005, 82.252 15.401, 82.520 14.967 C 82.789 14.533, 81.094 13.879, 78.754 13.516 C 76.414 13.152, 73.713 12.631, 72.750 12.360 C 71.787 12.088, 71.010 12.233, 71.023 12.683 M 51.750 14.662 C 52.438 14.940, 53.563 14.940, 54.250 14.662 C 54.938 14.385, 54.375 14.158, 53 14.158 C 51.625 14.158, 51.063 14.385, 51.750 14.662 M 50 17 C 50 17.550, 49.127 18, 48.059 18 C 46.991 18, 45.794 18.563, 45.399 19.250 C 45.003 19.938, 45.023 20.191, 45.442 19.814 C 45.862 19.436, 47.263 19.530, 48.555 20.021 C 50.426 20.732, 50.791 20.618, 50.345 19.457 C 49.964 18.465, 50.459 18, 51.893 18 C 53.052 18, 54 17.550, 54 17 C 54 16.450, 53.100 16, 52 16 C 50.900 16, 50 16.450, 50 17 M 34.500 18.666 C 32.742 20.075, 32.722 20.192, 34.332 19.635 C 35.339 19.286, 36.577 19, 37.082 19 C 37.587 19, 38 18.550, 38 18 C 38 16.584, 36.818 16.809, 34.500 18.666 M 84.564 18.293 C 84.940 19.279, 85.499 19.834, 85.807 19.526 C 86.115 19.219, 85.808 18.412, 85.124 17.733 C 84.136 16.753, 84.022 16.868, 84.564 18.293 M 79.094 22 C 79.004 24.119, 80.740 26.593, 81.667 25.667 C 82.093 25.240, 81.960 24.578, 81.371 24.196 C 80.782 23.813, 80.043 22.825, 79.729 22 C 79.221 20.667, 79.151 20.667, 79.094 22 M 48 23 C 48 23.550, 48.450 24, 49 24 C 49.550 24, 50 23.550, 50 23 C 50 22.450, 49.550 22, 49 22 C 48.450 22, 48 22.450, 48 23 M 42.089 25.833 C 41.348 27.218, 41.462 27.667, 42.554 27.667 C 43.349 27.667, 44 26.842, 44 25.833 C 44 23.502, 43.337 23.502, 42.089 25.833 M 47.149 27.604 C 45.327 29.665, 46.500 30.643, 48.452 28.690 C 49.304 27.839, 50 26.886, 50 26.571 C 50 25.521, 48.515 26.059, 47.149 27.604 M 80 29 C 80 29.550, 80.450 30, 81 30 C 81.550 30, 82 29.550, 82 29 C 82 28.450, 81.550 28, 81 28 C 80.450 28, 80 28.450, 80 29 M 76 33 C 76 33.550, 76.450 34, 77 34 C 77.550 34, 78 33.550, 78 33 C 78 32.450, 77.550 32, 77 32 C 76.450 32, 76 32.450, 76 33 M 42 35 C 42 35.550, 42.450 36, 43 36 C 43.550 36, 44 35.550, 44 35 C 44 34.450, 43.550 34, 43 34 C 42.450 34, 42 34.450, 42 35 M 46 35 C 46 35.550, 46.450 36, 47 36 C 47.550 36, 48 35.550, 48 35 C 48 34.450, 47.550 34, 47 34 C 46.450 34, 46 34.450, 46 35 M 22 38.893 C 22 39.384, 22.739 40.069, 23.641 40.416 C 25.014 40.943, 25.076 40.796, 24.019 39.523 C 22.579 37.788, 22 37.607, 22 38.893 M 46 39 C 46 39.550, 46.450 40, 47 40 C 47.550 40, 48 39.550, 48 39 C 48 38.450, 47.550 38, 47 38 C 46.450 38, 46 38.450, 46 39 M 42 41 C 42 41.550, 42.450 42, 43 42 C 43.550 42, 44 41.550, 44 41 C 44 40.450, 43.550 40, 43 40 C 42.450 40, 42 40.450, 42 41 M 64 41 C 64 41.550, 64.450 42, 65 42 C 65.550 42, 66 41.550, 66 41 C 66 40.450, 65.550 40, 65 40 C 64.450 40, 64 40.450, 64 41 M 20 43.103 C 20 43.476, 21.524 43.959, 23.386 44.177 C 25.858 44.465, 26.639 44.222, 26.277 43.278 C 25.778 41.980, 20 41.819, 20 43.103 M 52 43 C 52 43.550, 52.450 44, 53 44 C 53.550 44, 54 43.550, 54 43 C 54 42.450, 53.550 42, 53 42 C 52.450 42, 52 42.450, 52 43 M 18.722 45.050 C 19.944 46.337, 21.138 47.189, 21.374 46.944 C 21.611 46.700, 20.611 45.648, 19.152 44.606 L 16.500 42.712 18.722 45.050 M 28 45 C 28 45.550, 28.450 46, 29 46 C 29.550 46, 30 45.550, 30 45 C 30 44.450, 29.550 44, 29 44 C 28.450 44, 28 44.450, 28 45 M 46 45 C 46 45.550, 46.450 46, 47 46 C 47.550 46, 48 45.550, 48 45 C 48 44.450, 47.550 44, 47 44 C 46.450 44, 46 44.450, 46 45 M 46 55 C 46 55.550, 46.675 56, 47.500 56 C 48.325 56, 49 55.550, 49 55 C 49 54.450, 48.325 54, 47.500 54 C 46.675 54, 46 54.450, 46 55 M 40 64.849 C 40 65.248, 40.900 65.642, 42 65.725 C 43.100 65.808, 44 65.549, 44 65.151 C 44 64.752, 43.100 64.358, 42 64.275 C 40.900 64.192, 40 64.451, 40 64.849 M 48 73 C 48 73.550, 48.450 74, 49 74 C 49.550 74, 50 73.550, 50 73 C 50 72.450, 49.550 72, 49 72 C 48.450 72, 48 72.450, 48 73 M 47 77 C 47 77.550, 47.702 78, 48.559 78 C 49.416 78, 49.840 77.550, 49.500 77 C 49.160 76.450, 48.459 76, 47.941 76 C 47.423 76, 47 76.450, 47 77 M 53.459 83.067 C 52.383 84.808, 53.608 85.177, 54.980 83.524 C 55.769 82.574, 55.845 82, 55.181 82 C 54.597 82, 53.821 82.480, 53.459 83.067" stroke="none" fill="black" fill-rule="evenodd"/>
</svg>