<svg data-original-color="#d7e3fc" xmlns="http://www.w3.org/2000/svg" width="288" height="109" viewBox="0 0 288 109" version="1.1">
	<path d="M 68 15.968 C 68 16.522, 69.800 18.111, 72 19.500 C 75.543 21.737, 76 22.467, 76 25.896 C 76 29.134, 75.355 30.350, 72.060 33.327 C 69.893 35.285, 66.630 37.660, 64.810 38.605 C 59.841 41.185, 50.373 43.848, 49.059 43.036 C 47.374 41.995, 50.748 30.564, 53.671 27.410 C 55.633 25.293, 56.547 25.012, 59.600 25.585 C 62.980 26.219, 63.142 26.134, 62.144 24.268 C 61.557 23.172, 59.469 20.863, 57.503 19.137 C 52.494 14.739, 49.017 14.940, 44.249 19.901 C 40.197 24.118, 37.950 29.090, 35.843 38.500 C 34.533 44.351, 34.421 44.496, 31.307 44.359 C 27.552 44.193, 22.391 40.808, 21.471 37.907 C 20.502 34.856, 25.141 28.577, 30.728 25.377 C 36.613 22.007, 36.461 22.127, 35.737 21.404 C 34.858 20.525, 23.701 26.708, 19.175 30.582 C 6.786 41.187, 11.563 53.867, 28.639 55.704 L 33.777 56.257 35.425 64.878 C 36.331 69.620, 37.821 75.300, 38.737 77.500 C 45.224 93.089, 56.058 93.983, 62.960 79.500 C 64.862 75.509, 68.116 63.797, 67.498 63.169 C 66.665 62.324, 62.998 65.262, 62.985 66.785 C 62.963 69.241, 60.672 75.485, 59.096 77.384 C 57.345 79.495, 54.695 79.438, 52.772 77.250 C 49.170 73.153, 46.443 56.374, 49.250 55.587 C 49.938 55.394, 52.525 54.686, 55 54.014 C 63.169 51.797, 75.811 45.853, 80.019 42.251 C 94.487 29.867, 91.081 20.063, 70.750 15.570 C 69.169 15.220, 68 15.390, 68 15.968 M 121 26.462 C 121 31.922, 120.998 31.925, 116.750 33.837 C 113.181 35.443, 112.322 35.530, 111.390 34.375 C 109.883 32.509, 109.001 32.647, 108.994 34.750 C 108.990 35.712, 108.315 37.789, 107.494 39.364 C 105.156 43.847, 105.627 46.271, 109.256 48.430 C 111.040 49.492, 112.725 50.334, 113 50.302 C 113.275 50.270, 115.134 49.954, 117.132 49.599 L 120.764 48.954 121.463 54.548 C 121.847 57.625, 122.783 61.629, 123.541 63.444 C 124.300 65.260, 124.601 67.100, 124.210 67.533 C 123.820 67.966, 124.063 67.997, 124.750 67.601 C 125.438 67.206, 126 65.360, 126 63.500 C 126 61.640, 126.450 59.840, 127 59.500 C 127.550 59.160, 128 57.439, 128 55.675 C 128 51.384, 131.088 45.802, 134.351 44.195 C 136.296 43.238, 137 42.130, 137 40.027 C 137 38.452, 137.291 36.339, 137.647 35.332 C 138.179 33.827, 137.904 33.902, 136.109 35.750 C 134.906 36.987, 133.265 38, 132.461 38 C 130.416 38, 130.555 32.150, 132.655 29.829 C 134.222 28.097, 134.156 27.999, 131.405 27.985 C 127.945 27.966, 127.012 27.377, 124.704 23.750 C 122.074 19.617, 121 20.403, 121 26.462 M 172.559 22.726 C 170.937 23.139, 171.155 23.446, 173.886 24.594 L 177.154 25.968 176.733 41.443 C 176.456 51.655, 175.894 57.423, 175.082 58.401 C 174.096 59.589, 174.188 60.593, 175.540 63.442 C 176.468 65.399, 177.852 67, 178.614 67 C 180.812 67, 180.636 25.779, 178.429 23.571 C 176.828 21.971, 175.996 21.851, 172.559 22.726 M 253.382 24.191 C 252.977 24.846, 253.176 25.559, 253.823 25.774 C 256.228 26.576, 255.079 29.862, 252.250 30.273 C 250.738 30.492, 251.750 30.550, 254.500 30.401 C 257.250 30.251, 260.764 30.100, 262.309 30.065 C 265.429 29.993, 265.074 28, 261.941 28 C 260.873 28, 260 27.341, 260 26.535 C 260 25.097, 257.108 23, 255.125 23 C 254.571 23, 253.787 23.536, 253.382 24.191 M 160.500 26.150 C 156.487 28.144, 157.632 28.013, 166 25.520 C 169.895 24.359, 170.097 24.178, 167.500 24.170 C 165.850 24.166, 162.700 25.056, 160.500 26.150 M 204.667 27.667 C 204.300 28.033, 204 29.553, 204 31.044 C 204 32.535, 203.371 34.277, 202.603 34.914 C 201.808 35.574, 201.444 36.984, 201.759 38.186 C 202.119 39.562, 201.667 40.770, 200.465 41.650 C 197.803 43.596, 197 43.330, 197 40.500 C 197 38.107, 195.654 37.132, 194.633 38.785 C 194.366 39.216, 193.873 42.254, 193.537 45.535 L 192.926 51.500 196.885 54.185 C 199.168 55.733, 200.983 57.836, 201.172 59.152 C 201.650 62.475, 206.575 63.618, 214.256 62.190 C 219.960 61.129, 224.146 58.812, 222.796 57.463 C 222.474 57.141, 219.440 57.450, 216.052 58.150 C 209.349 59.535, 206.500 58.744, 206.500 55.500 C 206.500 53.387, 208.066 52.401, 213.621 51.018 L 217.742 49.992 218.421 42.209 C 218.795 37.928, 218.814 33.680, 218.465 32.769 C 217.591 30.493, 215.030 30.093, 211.721 31.717 C 208.369 33.363, 207 32.703, 207 29.441 C 207 27.065, 206.016 26.317, 204.667 27.667 M 160.289 32.105 C 155.934 34.108, 155.235 37, 159.107 37 C 161.999 37, 161.532 40.847, 158.500 42 C 155.625 43.093, 155.226 45.467, 157.685 46.844 C 159.258 47.724, 159.251 47.968, 157.592 50.500 C 154.698 54.917, 156.904 55.604, 163.901 52.464 C 169.766 49.832, 171.653 48, 168.500 48 C 166.473 48, 166.603 45.096, 168.737 42.738 C 170.386 40.916, 170.386 40.755, 168.737 39.549 C 166.602 37.989, 166.503 35.657, 168.500 34 C 169.325 33.315, 170 32.135, 170 31.378 C 170 29.426, 165.359 29.773, 160.289 32.105 M 244.813 31.683 C 245.534 31.972, 246.397 31.936, 246.729 31.604 C 247.061 31.272, 246.471 31.036, 245.417 31.079 C 244.252 31.127, 244.015 31.364, 244.813 31.683 M 234.701 37.538 C 233.215 40.566, 232 44.004, 232 45.177 C 232 47.180, 232.111 47.209, 233.829 45.655 C 238.109 41.781, 239.659 45.180, 238.080 54.981 C 237.513 58.502, 237.233 61.567, 237.458 61.792 C 238.422 62.756, 240 60.688, 240 58.460 C 240 57.127, 240.549 52.833, 241.221 48.917 C 242.325 42.479, 242.277 41.676, 240.721 40.538 C 239.774 39.846, 238.993 38.204, 238.985 36.890 C 238.952 31.764, 237.419 31.995, 234.701 37.538 M 151.638 38.250 C 150.031 52.482, 149.787 58, 150.765 58 C 151.328 58, 151.748 56.987, 151.698 55.750 C 151.648 54.513, 151.957 48.888, 152.384 43.250 C 153.192 32.585, 152.671 29.097, 151.638 38.250 M 208.250 34.198 C 205.618 35.494, 205.300 37.794, 207.631 38.688 C 209.608 39.447, 216.195 36.092, 215.699 34.578 C 215.209 33.082, 210.957 32.865, 208.250 34.198 M 254.248 35.250 C 254.774 36.834, 259.707 38.626, 260.729 37.604 C 261.740 36.593, 258.140 34, 255.726 34 C 254.657 34, 254.014 34.544, 254.248 35.250 M 116.579 36.948 C 113.249 39.132, 110.016 43.765, 110.007 46.365 C 110 48.117, 110.149 48.133, 112.465 46.615 C 113.820 45.727, 115.755 45, 116.765 45 C 119.496 45, 121 42.997, 121 39.359 C 121 35.203, 120.039 34.679, 116.579 36.948 M 208.200 42.200 C 206.722 43.678, 206.651 45.666, 208.044 46.527 C 209.460 47.402, 214 44.315, 214 42.477 C 214 40.684, 209.911 40.489, 208.200 42.200 M 252.222 42.183 C 252.460 42.908, 254.355 43.642, 256.433 43.817 C 259.208 44.049, 260.096 43.784, 259.778 42.817 C 259.540 42.092, 257.645 41.358, 255.567 41.183 C 252.792 40.951, 251.904 41.216, 252.222 42.183 M 172 43 C 172 43.550, 172.702 44, 173.559 44 C 174.416 44, 174.840 43.550, 174.500 43 C 174.160 42.450, 173.459 42, 172.941 42 C 172.423 42, 172 42.450, 172 43 M 196.200 46.200 C 194.790 47.610, 194.614 50.643, 195.896 51.436 C 197.449 52.395, 201.394 48.469, 200.698 46.656 C 199.952 44.712, 197.896 44.504, 196.200 46.200 M 254.582 50.719 C 252.243 51.962, 251.280 52.031, 249.734 51.066 C 248.673 50.403, 247.677 50.005, 247.519 50.181 C 247.362 50.356, 247.600 53.147, 248.048 56.382 C 248.976 63.077, 250.896 66.193, 251.171 61.450 C 251.265 59.827, 251.389 57.670, 251.446 56.656 C 251.537 55.032, 255.179 52.133, 257.250 52.035 C 258.602 51.972, 258.035 55.726, 256.500 57 C 255.675 57.685, 255 59.090, 255 60.122 C 255 61.633, 255.750 62, 258.833 62 C 260.942 62, 262.862 61.805, 263.101 61.566 C 263.339 61.327, 263.302 58.515, 263.017 55.316 C 262.542 49.976, 262.296 49.486, 260 49.333 C 258.625 49.242, 256.187 49.865, 254.582 50.719 M 160.500 58.788 C 157.750 59.656, 156.204 60.527, 157.065 60.721 C 157.925 60.916, 160.625 60.190, 163.065 59.108 C 168.375 56.753, 167.347 56.625, 160.500 58.788 M 120 78.800 C 120 81.660, 120.450 84, 121 84 C 122.647 84, 122.576 76.279, 120.914 74.550 C 120.357 73.972, 120 75.635, 120 78.800 M 135.667 74.667 C 134.602 75.732, 134.897 84, 136 84 C 136.550 84, 137 81.750, 137 79 C 137 73.930, 136.860 73.474, 135.667 74.667 M 107.005 77.490 C 105.842 79.663, 105.905 80.238, 107.497 81.996 C 109.747 84.483, 110.599 83.931, 108.844 81.122 C 107.823 79.487, 107.808 78.792, 108.775 77.825 C 110.185 76.415, 110.382 75, 109.169 75 C 108.712 75, 107.738 76.121, 107.005 77.490 M 127 79.500 C 127 81.975, 127.450 84, 128 84 C 128.550 84, 129 81.975, 129 79.500 C 129 77.025, 128.550 75, 128 75 C 127.450 75, 127 77.025, 127 79.500 M 142.160 79.750 C 142.283 83.401, 142.413 83.748, 142.723 81.250 C 143.179 77.582, 144.190 77.209, 146.793 79.750 C 151.806 84.642, 152.012 84.627, 151.850 79.372 C 151.760 76.453, 151.533 75.602, 151.284 77.250 C 150.770 80.642, 149.963 80.681, 146.182 77.500 C 144.548 76.125, 142.939 75, 142.606 75 C 142.273 75, 142.072 77.138, 142.160 79.750 M 159.399 76.250 C 159.003 76.938, 159.048 77.166, 159.498 76.759 C 160.545 75.810, 163 77.817, 163 79.622 C 163 80.380, 162.100 81, 161 81 C 159.784 81, 159 80.333, 159 79.300 C 159 77.062, 157.444 78.743, 156.500 82 C 155.907 84.044, 156.015 84.272, 157.088 83.250 C 157.809 82.563, 159.847 82, 161.617 82 C 163.386 82, 165.034 82.563, 165.280 83.250 C 165.525 83.938, 166 84.250, 166.334 83.945 C 166.669 83.640, 166.008 81.503, 164.867 79.195 C 162.790 74.998, 160.751 73.900, 159.399 76.250 M 178 79.500 C 178 81.975, 178.450 84, 179 84 C 179.550 84, 180 81.975, 180 79.500 C 180 77.025, 179.550 75, 179 75 C 178.450 75, 178 77.025, 178 79.500 M 187 79.500 C 187 82.495, 187.429 84, 188.283 84 C 189.065 84, 189.487 82.926, 189.364 81.250 C 189.253 79.737, 189.126 77.713, 189.081 76.750 C 189.037 75.787, 188.550 75, 188 75 C 187.450 75, 187 77.025, 187 79.500 M 199 79.500 C 199 82.447, 199.434 84, 200.257 84 C 201.134 84, 201.406 82.637, 201.157 79.500 C 200.960 77.025, 200.394 75, 199.899 75 C 199.405 75, 199 77.025, 199 79.500 M 211 79.500 C 211 81.975, 211.398 84, 211.883 84 C 213.014 84, 213.912 79.381, 213.264 76.900 C 212.349 73.402, 211 74.951, 211 79.500 M 223.667 75.667 C 222.486 76.847, 222.958 82.770, 224.273 83.275 C 225.186 83.625, 225.539 82.525, 225.523 79.385 C 225.501 75.147, 225.063 74.270, 223.667 75.667 M 236.200 76.200 C 234.796 77.604, 234.599 81.634, 235.895 82.435 C 236.388 82.740, 236.962 81.191, 237.172 78.994 C 237.381 76.797, 237.518 75, 237.476 75 C 237.434 75, 236.860 75.540, 236.200 76.200 M 244 79 C 244 81.491, 244.395 82.874, 245 82.500 C 245.550 82.160, 246 80.585, 246 79 C 246 77.415, 245.550 75.840, 245 75.500 C 244.395 75.126, 244 76.509, 244 79 M 250.150 79.750 C 250.242 82.684, 250.459 83.449, 250.716 81.750 C 251.243 78.276, 252.305 78.275, 254.835 81.748 C 255.936 83.260, 257.144 84.189, 257.519 83.814 C 258.273 83.060, 252.159 75, 250.833 75 C 250.375 75, 250.067 77.138, 250.150 79.750 M 262 77 C 261.146 78.596, 261.240 79, 262.465 79 C 263.436 79, 264 79.919, 264 81.500 C 264 82.875, 264.450 84, 265 84 C 265.550 84, 266 81.975, 266 79.500 C 266 74.574, 263.976 73.308, 262 77" stroke="none" fill="#d7e3fc" fill-rule="evenodd"/>
</svg>