<svg data-original-color="#3278f0" xmlns="http://www.w3.org/2000/svg" width="100" height="94" viewBox="0 0 100 94" version="1.1">
	<path d="M 70 11.968 C 70 12.522, 71.800 14.111, 74 15.500 C 77.543 17.737, 78 18.467, 78 21.896 C 78 25.163, 77.356 26.349, 73.872 29.496 C 68.082 34.728, 53.767 40.710, 51.052 39.032 C 49.374 37.995, 52.756 26.555, 55.671 23.410 C 57.633 21.293, 58.547 21.012, 61.600 21.585 C 64.980 22.219, 65.142 22.134, 64.144 20.268 C 63.557 19.172, 61.469 16.863, 59.503 15.137 C 54.494 10.739, 51.017 10.940, 46.249 15.901 C 42.197 20.118, 39.950 25.090, 37.843 34.500 C 36.533 40.351, 36.421 40.496, 33.307 40.359 C 29.552 40.193, 24.391 36.808, 23.471 33.907 C 22.502 30.856, 27.141 24.577, 32.728 21.377 C 38.613 18.007, 38.461 18.127, 37.737 17.404 C 36.858 16.525, 25.701 22.708, 21.175 26.582 C 13.952 32.764, 12.030 41.585, 16.914 46.135 C 19.671 48.703, 28.384 52, 32.413 52 L 35.752 52 37.546 61.250 C 38.533 66.338, 40.141 72.300, 41.119 74.500 C 49.207 92.678, 62.750 88.201, 68.345 65.500 C 69.159 62.200, 69.677 59.351, 69.498 59.169 C 68.530 58.187, 64.994 61.394, 64.959 63.285 C 64.894 66.749, 60.698 74.463, 58.676 74.838 C 57.672 75.023, 56.048 74.449, 55.067 73.560 C 52.766 71.478, 49.768 60.410, 50.180 55.523 C 50.498 51.769, 50.551 51.726, 57 50.036 C 71.389 46.266, 83.519 38.890, 88.619 30.812 C 94.396 21.661, 89.044 15.171, 72.750 11.570 C 71.169 11.220, 70 11.390, 70 11.968" stroke="none" fill="#3278f0" fill-rule="evenodd"/>
</svg>